<?xml version="1.0" encoding="utf-8"?>
<!-- Generator: Adobe Illustrator 27.0.0, SVG Export Plug-In . SVG Version: 6.00 Build 0)  -->
<svg version="1.1" id="Layer_1" xmlns="http://www.w3.org/2000/svg" xmlns:xlink="http://www.w3.org/1999/xlink" x="0px" y="0px"
	 viewBox="0 0 64 64.1999969" style="enable-background:new 0 0 64 64.1999969;" xml:space="preserve">
<path d="M11.3120117,38.6060562c-0.4819336,0-0.8955078,0.34375-0.9833984,0.8173828L6.3574219,60.8345718
	c-0.0541992,0.2919922,0.0244141,0.59375,0.2143555,0.8222656s0.4716797,0.3603516,0.769043,0.3603516h24.4804688
	c0.0634155,0,0.1185913-0.0247803,0.1787109-0.0361328c0.0601196,0.0113525,0.1152954,0.0361328,0.1787109,0.0361328h24.4804688
	c0.2973633,0,0.5791016-0.1318359,0.769043-0.3603516s0.2685547-0.5302734,0.2143555-0.8222656L53.6713867,39.423439
	c-0.0878906-0.4736328-0.5014648-0.8173828-0.9833984-0.8173828h-1.40625v-1.3671875h0.2670898c0.5522461,0,1-0.4472656,1-1
	v-1.6445312h4.1103516c0.5522461,0,1-0.4472656,1-1v-9.4033222c0-0.5527344-0.4477539-1-1-1s-1,0.4472656-1,1v8.4033222h-3.1103516
	v-1.6445332c0-0.5527344-0.4477539-1-1-1h-4.5712891V10.3101559c0-0.0270996-0.0134277-0.0512695-0.015564-0.078125
	c-0.0061035-0.0805664-0.0214844-0.1580811-0.0467529-0.2348633c-0.0119019-0.0358887-0.0213623-0.0705566-0.0372925-0.1048584
	c-0.048645-0.1063232-0.1099854-0.2072754-0.1958008-0.2930908l-7.3061523-7.3066401
	C39.2887573,2.20542,39.1858521,2.1434083,39.0776367,2.094336C39.0467529,2.08042,39.0161743,2.071631,38.984375,2.0610108
	c-0.0839233-0.0284424-0.1690063-0.0447998-0.2573853-0.0501709c-0.0282593-0.0015869-0.0548706-0.0070801-0.0831299-0.0063477
	h-0.0424194c-0.0111084,0.0007324-0.0219116-0.0012207-0.03302,0H18.0224609c-0.5522461,0-1,0.4472656-1,1v26.9453125h-4.5712891
	c-0.5522461,0-1,0.4472656-1,1v5.2890644c0,0.5527344,0.4477539,1,1,1h0.2670898v1.3671875H11.3120117z M55.456543,60.017189
	h-23.277832c-0.0634155,0-0.1185913,0.0246582-0.1787109,0.0360107c-0.0601196-0.0113525-0.1152954-0.0360107-0.1787109-0.0360107
	H8.543457l3.6000977-19.4111328h1.574707h36.5634766h1.574707L55.456543,60.017189z M39.6689453,5.4152589l3.8907471,3.8909907
	h-3.8907471V5.4152589z M19.0224609,4.0044923h18.6464844v6.3017573c0,0.5527344,0.4477539,1,1,1h6.3085938v18.6435547h-0.6054688
	H19.6367188h-0.6142578V4.0044923z M42.1147461,31.9498043C39.4003906,34.5269547,35.8164062,35.970314,32,35.970314
	c-3.8193359,0-7.4013672-1.4433594-10.1098633-4.0205097H42.1147461z M13.4511719,31.9498043H19.18573
	C22.3638916,35.7726822,26.9962158,37.970314,32,37.970314c4.999939,0,9.6352539-2.197876,12.8225098-6.0205097h5.7263184v1.6347675
	c-0.000061,0.003418-0.0019531,0.0063477-0.0019531,0.0097656s0.0018921,0.0063477,0.0019531,0.0097656v1.6347656h-0.2670898
	c-0.5522461,0-1,0.4472656-1,1v2.3671875H14.7182617v-2.3671875c0-0.5527344-0.4477539-1-1-1h-0.2670898V31.9498043z"/>
<path d="M21.6430664,46.6343765c0-1.4951172-1.2163086-2.7109375-2.7114258-2.7109375s-2.7114258,1.2158203-2.7114258,2.7109375
	s1.2163086,2.7119141,2.7114258,2.7119141S21.6430664,48.1294937,21.6430664,46.6343765z M18.9316406,47.3462906
	c-0.3920898,0-0.7114258-0.3193359-0.7114258-0.7119141c0-0.3916016,0.3193359-0.7109375,0.7114258-0.7109375
	s0.7114258,0.3193359,0.7114258,0.7109375C19.6430664,47.0269547,19.3237305,47.3462906,18.9316406,47.3462906z"/>
<path d="M28.1772461,46.6343765c0-1.4951172-1.2163086-2.7109375-2.7114258-2.7109375s-2.7114258,1.2158203-2.7114258,2.7109375
	s1.2163086,2.7119141,2.7114258,2.7119141S28.1772461,48.1294937,28.1772461,46.6343765z M25.4658203,47.3462906
	c-0.3920898,0-0.7114258-0.3193359-0.7114258-0.7119141c0-0.3916016,0.3193359-0.7109375,0.7114258-0.7109375
	s0.7114258,0.3193359,0.7114258,0.7109375C26.1772461,47.0269547,25.8579102,47.3462906,25.4658203,47.3462906z"/>
<path d="M34.7114258,46.6343765c0-1.4951172-1.2163086-2.7109375-2.7114258-2.7109375s-2.7114258,1.2158203-2.7114258,2.7109375
	S30.5048828,49.3462906,32,49.3462906S34.7114258,48.1294937,34.7114258,46.6343765z M32,47.3462906
	c-0.3920898,0-0.7114258-0.3193359-0.7114258-0.7119141c0-0.3916016,0.3193359-0.7109375,0.7114258-0.7109375
	s0.7114258,0.3193359,0.7114258,0.7109375C32.7114258,47.0269547,32.3920898,47.3462906,32,47.3462906z"/>
<path d="M41.2456055,46.6343765c0-1.4951172-1.2163086-2.7109375-2.7114258-2.7109375s-2.7114258,1.2158203-2.7114258,2.7109375
	s1.2163086,2.7119141,2.7114258,2.7119141S41.2456055,48.1294937,41.2456055,46.6343765z M38.5341797,47.3462906
	c-0.3920898,0-0.7114258-0.3193359-0.7114258-0.7119141c0-0.3916016,0.3193359-0.7109375,0.7114258-0.7109375
	s0.7114258,0.3193359,0.7114258,0.7109375C39.2456055,47.0269547,38.9262695,47.3462906,38.5341797,47.3462906z"/>
<path d="M45.0683594,43.923439c-1.4951172,0-2.7114258,1.2158203-2.7114258,2.7109375s1.2163086,2.7119141,2.7114258,2.7119141
	s2.7114258-1.2167969,2.7114258-2.7119141S46.5634766,43.923439,45.0683594,43.923439z M45.0683594,47.3462906
	c-0.3920898,0-0.7114258-0.3193359-0.7114258-0.7119141c0-0.3916016,0.3193359-0.7109375,0.7114258-0.7109375
	s0.7114258,0.3193359,0.7114258,0.7109375C45.7797852,47.0269547,45.4604492,47.3462906,45.0683594,47.3462906z"/>
<path d="M22.1987305,50.4576187c-1.4951172,0-2.7114258,1.2158203-2.7114258,2.7109375s1.2163086,2.7119141,2.7114258,2.7119141
	s2.7114258-1.2167969,2.7114258-2.7119141S23.6938477,50.4576187,22.1987305,50.4576187z M22.1987305,53.8804703
	c-0.3920898,0-0.7114258-0.3193359-0.7114258-0.7119141c0-0.3916016,0.3193359-0.7109375,0.7114258-0.7109375
	s0.7114258,0.3193359,0.7114258,0.7109375C22.9101562,53.5611343,22.5908203,53.8804703,22.1987305,53.8804703z"/>
<path d="M28.7329102,50.4576187c-1.4951172,0-2.7114258,1.2158203-2.7114258,2.7109375s1.2163086,2.7119141,2.7114258,2.7119141
	s2.7114258-1.2167969,2.7114258-2.7119141S30.2280273,50.4576187,28.7329102,50.4576187z M28.7329102,53.8804703
	c-0.3920898,0-0.7114258-0.3193359-0.7114258-0.7119141c0-0.3916016,0.3193359-0.7109375,0.7114258-0.7109375
	s0.7114258,0.3193359,0.7114258,0.7109375C29.4443359,53.5611343,29.125,53.8804703,28.7329102,53.8804703z"/>
<path d="M35.2670898,50.4576187c-1.4951172,0-2.7114258,1.2158203-2.7114258,2.7109375s1.2163086,2.7119141,2.7114258,2.7119141
	s2.7114258-1.2167969,2.7114258-2.7119141S36.762207,50.4576187,35.2670898,50.4576187z M35.2670898,53.8804703
	c-0.3920898,0-0.7114258-0.3193359-0.7114258-0.7119141c0-0.3916016,0.3193359-0.7109375,0.7114258-0.7109375
	s0.7114258,0.3193359,0.7114258,0.7109375C35.9785156,53.5611343,35.6591797,53.8804703,35.2670898,53.8804703z"/>
<path d="M41.8012695,50.4576187c-1.4951172,0-2.7114258,1.2158203-2.7114258,2.7109375s1.2163086,2.7119141,2.7114258,2.7119141
	s2.7114258-1.2167969,2.7114258-2.7119141S43.2963867,50.4576187,41.8012695,50.4576187z M41.8012695,53.8804703
	c-0.3920898,0-0.7114258-0.3193359-0.7114258-0.7119141c0-0.3916016,0.3193359-0.7109375,0.7114258-0.7109375
	s0.7114258,0.3193359,0.7114258,0.7109375C42.5126953,53.5611343,42.1933594,53.8804703,41.8012695,53.8804703z"/>
<path d="M29.371582,14.8306637h10.6743164c0.5522461,0,1-0.4472656,1-1s-0.4477539-1-1-1H29.371582c-0.5522461,0-1,0.4472656-1,1
	S28.8193359,14.8306637,29.371582,14.8306637z"/>
<path d="M40.0458984,16.9341793H37.449707c-0.5522461,0-1,0.4472656-1,1s0.4477539,1,1,1h2.5961914c0.5522461,0,1-0.4472656,1-1
	S40.5981445,16.9341793,40.0458984,16.9341793z"/>
<path d="M23.9541016,18.9341793h9.5844727c0.5522461,0,1-0.4472656,1-1s-0.4477539-1-1-1h-9.5844727c-0.5522461,0-1,0.4472656-1,1
	S23.4018555,18.9341793,23.9541016,18.9341793z"/>
<path d="M40.0458984,21.0376949H29.996582c-0.5522461,0-1,0.4472656-1,1s0.4477539,1,1,1h10.0493164c0.5522461,0,1-0.4472656,1-1
	S40.5981445,21.0376949,40.0458984,21.0376949z"/>
<path d="M23.9541016,23.0376949h2.2436523c0.5522461,0,1-0.4472656,1-1s-0.4477539-1-1-1h-2.2436523c-0.5522461,0-1,0.4472656-1,1
	S23.4018555,23.0376949,23.9541016,23.0376949z"/>
<path d="M23.9541016,27.140234h10.4819336c0.5522461,0,1-0.4472656,1-1s-0.4477539-1-1-1H23.9541016c-0.5522461,0-1,0.4472656-1,1
	S23.4018555,27.140234,23.9541016,27.140234z"/>
</svg>
